<svg width="45" height="65" viewBox="0 0 45 65" fill="none" xmlns="http://www.w3.org/2000/svg">
<path fill-rule="evenodd" clip-rule="evenodd" d="M43.9236 22.2214V22.4014C43.9036 22.4414 43.7736 22.5914 43.7736 22.5914C43.7464 22.6506 43.7092 22.7047 43.6636 22.7514C43.6336 22.8314 43.5436 22.8314 43.5436 22.8314L43.4336 22.9114L23.0036 32.6414V34.0114H32.0036C32.1538 34.0121 32.3019 34.0466 32.437 34.1124C32.572 34.1782 32.6905 34.2735 32.7836 34.3914L36.7836 39.3914C36.9248 39.5673 37.0023 39.7858 37.0036 40.0114V63.0114C37.0036 63.2766 36.8983 63.531 36.7107 63.7185C36.5232 63.906 36.2688 64.0114 36.0036 64.0114H8.00362C7.7384 64.0114 7.48405 63.906 7.29651 63.7185C7.10898 63.531 7.00362 63.2766 7.00362 63.0114V39.9414C7.00266 39.7124 7.08031 39.49 7.22362 39.3114L11.2236 34.3814C11.3177 34.2654 11.4367 34.1719 11.5716 34.1079C11.7066 34.0439 11.8542 34.0109 12.0036 34.0114H21.0036V32.6414L0.443619 22.8114L0.333619 22.7314C0.277865 22.7076 0.227004 22.6737 0.183619 22.6314C0.138072 22.5847 0.100865 22.5306 0.0736187 22.4714L0.00361905 22.3614V22.1814C-0.00120635 22.1248 -0.00120635 22.068 0.00361905 22.0114C-0.00462919 16.3771 2.14917 10.9543 6.021 6.8611C9.89283 2.76787 15.1875 0.316154 20.8136 0.0113938C20.913 -0.00369156 21.0142 -0.00369156 21.1136 0.0113938H22.0036H22.9036C23.0064 -0.00379793 23.1108 -0.00379793 23.2136 0.0113938C28.8361 0.321095 34.1259 2.77497 37.9935 6.86768C41.8611 10.9604 44.0121 16.3803 44.0036 22.0114C43.9849 22.0842 43.9581 22.1546 43.9236 22.2214ZM17.7836 36.0114H12.4836L10.0036 39.0114H17.1836L17.7836 36.0114ZM26.8036 39.0114H33.9336L31.5236 36.0114H26.2236L26.8036 39.0114ZM24.7836 39.0114L24.1836 36.0114H23.0036V37.0114C23.0036 37.2766 22.8983 37.531 22.7107 37.7185C22.5232 37.906 22.2688 38.0114 22.0036 38.0114C21.7384 38.0114 21.484 37.906 21.2965 37.7185C21.109 37.531 21.0036 37.2766 21.0036 37.0114V36.0114H19.8236L19.2236 39.0114H24.7836ZM21.5136 2.01139C20.0582 3.97465 18.8585 6.11519 17.9436 8.38139C16.5476 12.05 15.8884 15.9578 16.0036 19.8814C17.7719 18.6726 19.8617 18.0213 22.0036 18.0114C24.1406 18.043 26.2235 18.6887 28.0036 19.8714C28.131 15.9414 27.475 12.0253 26.0736 8.35139C25.1632 6.09237 23.9632 3.9612 22.5036 2.01139H22.0036H21.5136ZM22.0036 30.2714L27.6836 22.1614C26.0966 20.8083 24.0889 20.0483 22.0036 20.0114C19.9154 20.0233 17.9005 20.7824 16.3236 22.1514L22.0036 30.2714ZM19.0036 29.4814L14.2436 22.6714C12.5963 20.9958 10.3532 20.0396 8.00362 20.0114C6.12714 20.02 4.30351 20.6338 2.80362 21.7614L19.0036 29.4814ZM32.6227 20.7187C31.5535 21.1752 30.5852 21.8389 29.7736 22.6714L25.0036 29.4814L41.2036 21.7614C39.6947 20.6511 37.8768 20.0393 36.0036 20.0114C34.841 20.0218 33.692 20.2621 32.6227 20.7187ZM36.0036 18.0114C38.0877 18.0474 40.1205 18.6639 41.8736 19.7914V19.7814C41.3803 15.4338 39.4749 11.3679 36.4495 8.207C33.424 5.04607 29.4454 2.96452 25.1236 2.28139C26.2362 3.97018 27.1775 5.76574 27.9336 7.64139C29.4258 11.541 30.1294 15.6979 30.0036 19.8714C31.7728 18.6656 33.8627 18.0177 36.0036 18.0114ZM16.0636 7.65139C16.8157 5.77388 17.7572 3.97793 18.8736 2.29139L18.9036 2.28139C14.5752 2.96151 10.5898 5.04423 7.56005 8.20948C4.53031 11.3747 2.62383 15.4473 2.13362 19.8014C3.87201 18.6412 5.91362 18.0186 8.00362 18.0114C10.1394 18.0417 12.2216 18.6837 14.0036 19.8614C13.8711 15.6949 14.5715 11.5438 16.0636 7.65139ZM35 41H9V62H35V41Z" fill="white"/>
<path d="M16.5049 51.4099C16.5058 51.4455 16.5134 51.4794 16.5277 51.512C16.5323 51.5229 16.5358 51.5335 16.5422 51.5436C16.5642 51.5804 16.5922 51.6141 16.6317 51.6381C16.6323 51.6385 16.6333 51.6385 16.6339 51.6388C16.6346 51.6392 16.6347 51.6401 16.6355 51.6404L21.8833 54.7153C21.8874 54.7178 21.8922 54.7165 21.8966 54.719C21.9343 54.7384 21.9759 54.7529 22.022 54.7529C22.068 54.7529 22.1096 54.7384 22.1477 54.7183C22.1525 54.7164 22.1579 54.7171 22.1625 54.7146L27.3171 51.6392C27.3575 51.6152 27.3857 51.5808 27.4086 51.5432C27.4148 51.5328 27.4187 51.5231 27.4231 51.512C27.4376 51.4792 27.4451 51.4455 27.4464 51.4099C27.4464 51.4023 27.4513 51.3961 27.4508 51.3889C27.4508 51.3856 27.4481 51.3833 27.4474 51.3799C27.4443 51.3395 27.4342 51.3 27.4122 51.263L22.2574 42.6337C22.2555 42.6302 22.2521 42.6287 22.2498 42.6254C22.2436 42.6155 22.2361 42.6078 22.2285 42.5989C22.219 42.5878 22.2093 42.578 22.1981 42.5681C22.1897 42.5612 22.1821 42.5536 22.1731 42.548C22.1696 42.5455 22.1678 42.542 22.1643 42.5399C22.1583 42.5362 22.1518 42.5362 22.1458 42.5332C22.1338 42.5268 22.1218 42.5222 22.1086 42.5176C22.0976 42.5138 22.0867 42.5099 22.0749 42.5076C22.0632 42.5049 22.0519 42.5044 22.0403 42.5039C22.0339 42.5032 22.0283 42.5 22.022 42.5C22.0156 42.5 22.0107 42.5032 22.0043 42.5035C21.993 42.5046 21.9825 42.5048 21.9715 42.5071C21.959 42.5093 21.9475 42.5134 21.9352 42.5175C21.9223 42.5219 21.9103 42.5266 21.8983 42.533C21.8929 42.536 21.8867 42.536 21.8812 42.539C21.878 42.5409 21.8761 42.5443 21.8731 42.5462C21.8634 42.5526 21.8551 42.5603 21.8459 42.5683C21.835 42.5778 21.8251 42.5871 21.8156 42.5982C21.8087 42.6067 21.8011 42.6143 21.7955 42.6233C21.7929 42.6268 21.7895 42.6286 21.7872 42.6321L16.5395 51.2616C16.5168 51.2986 16.5067 51.339 16.5032 51.3801C16.5028 51.3836 16.5004 51.3859 16.5 51.3896C16.4998 51.3963 16.5046 51.4027 16.5049 51.4099ZM22.2964 43.7682L26.488 50.7859L22.2964 48.8632V43.7682ZM21.7477 48.8616L17.4689 50.7895L21.7477 43.7534V48.8616ZM21.7477 49.4637V53.9994L17.3712 51.4355L21.7477 49.4637ZM22.2964 53.995V49.4665L26.5877 51.4355L22.2964 53.995Z" fill="white" stroke="white" stroke-width="0.5"/>
<path d="M27.4273 53.3474C27.3404 53.2522 27.1972 53.2333 27.0861 53.297L22.022 56.2869L16.9598 53.297C16.8492 53.2326 16.706 53.2522 16.618 53.3474C16.5303 53.4434 16.5212 53.5862 16.5961 53.6922L21.798 61.021C21.802 61.0267 21.8087 61.0284 21.8128 61.0335C21.8236 61.0466 21.8343 61.0581 21.8468 61.0688C21.8528 61.0738 21.8564 61.0813 21.8629 61.0857C21.868 61.0895 21.8745 61.0879 21.88 61.0914C21.8888 61.0965 21.8964 61.1039 21.9061 61.1087C21.941 61.1256 21.9796 61.1364 22.0209 61.1364C22.0211 61.1364 22.0211 61.1364 22.0214 61.1364C22.0214 61.1364 22.0214 61.1364 22.0218 61.1364C22.0221 61.1364 22.0221 61.1364 22.0221 61.1364C22.0223 61.1364 22.0223 61.1364 22.0227 61.1364C22.0639 61.1364 22.1024 61.1254 22.1375 61.1087C22.1472 61.1041 22.1548 61.0967 22.1636 61.0914C22.1689 61.0877 22.1754 61.0895 22.1807 61.0857C22.1872 61.0815 22.1907 61.0739 22.1967 61.0688C22.2093 61.0579 22.2202 61.0466 22.2306 61.0335C22.2347 61.0284 22.2415 61.0267 22.2454 61.021L27.4492 53.6922C27.5245 53.5862 27.5152 53.4434 27.4273 53.3474ZM21.7477 56.7629V60.0013L17.7891 54.4243L21.7477 56.7629ZM22.2964 60.0013V56.7629L26.2566 54.4243L22.2964 60.0013Z" fill="white" stroke="white" stroke-width="0.5"/>
</svg>
